<svg width="12" height="12" viewBox="0 0 12 12" fill="none" xmlns="http://www.w3.org/2000/svg">
<path d="M6.213 6.00054L3.19336 2.28345C3.06949 2.14201 3 1.95101 3 1.75197C3 1.55292 3.06949 1.36193 3.19336 1.22049C3.25419 1.15065 3.3267 1.0952 3.40666 1.05735C3.48663 1.01949 3.57245 1 3.65914 1C3.74583 1 3.83166 1.01949 3.91162 1.05735C3.99159 1.0952 4.06409 1.15065 4.12492 1.22049L7.80694 5.46798C7.93064 5.60974 8 5.80087 8 6C8 6.19914 7.93064 6.39026 7.80694 6.53202L4.12492 10.7795C4.06409 10.8493 3.99159 10.9048 3.91162 10.9427C3.83166 10.9805 3.74583 11 3.65914 11C3.57245 11 3.48663 10.9805 3.40666 10.9427C3.3267 10.9048 3.25419 10.8493 3.19336 10.7795C3.06949 10.6381 3 10.4471 3 10.248C3 10.049 3.06949 9.85799 3.19336 9.71655L6.213 6.00054Z" fill="white"/>
</svg>
