<svg className="show h-8 w-8 bg-transparent"
				width="20"
				height="19"
				viewBox="0 0 20 19"
				fill="none"
				xmlns="http://www.w3.org/2000/svg"
			>
				<path
					d="M9.55606 0.617188C12.1411 0.617188 12.4651 0.627187 13.4801 0.672187C14.4931 0.716187 15.1851 0.870187 15.7901 1.09519C16.4161 1.32819 16.9471 1.63919 17.4761 2.14519C18.0051 2.65119 18.3311 3.15919 18.5741 3.75819C18.8091 4.33719 18.9701 4.99919 19.0161 5.96819C19.0621 6.93919 19.0731 7.24919 19.0731 9.72219C19.0731 12.1952 19.0621 12.5052 19.0161 13.4762C18.9701 14.4452 18.8091 15.1072 18.5741 15.6862C18.3311 16.2852 18.0051 16.7922 17.4761 17.2992C16.9471 17.8052 16.4161 18.1162 15.7901 18.3492C15.1851 18.5742 14.4931 18.7282 13.4801 18.7722C12.4651 18.8162 12.1411 18.8272 9.55606 18.8272C6.97106 18.8272 6.64706 18.8172 5.63206 18.7722C4.61906 18.7282 3.92706 18.5742 3.32206 18.3492C2.69606 18.1162 2.16506 17.8052 1.63606 17.2992C1.10706 16.7932 0.781063 16.2852 0.538063 15.6862C0.303063 15.1072 0.142063 14.4452 0.0960625 13.4762C0.0500625 12.5052 0.0390625 12.1952 0.0390625 9.72219C0.0390625 7.24919 0.0500625 6.93919 0.0960625 5.96819C0.142063 4.99919 0.303063 4.33719 0.538063 3.75819C0.781063 3.15919 1.10706 2.65219 1.63606 2.14519C2.16506 1.63919 2.69606 1.32819 3.32206 1.09519C3.92706 0.870187 4.61906 0.716187 5.63206 0.672187C6.64706 0.628187 6.97106 0.617188 9.55606 0.617188ZM9.55606 2.25719C7.01406 2.25719 6.71306 2.26619 5.71006 2.31019C4.78206 2.35019 4.27806 2.49919 3.94306 2.62319C3.49906 2.78819 3.18206 2.98519 2.84906 3.30419C2.51606 3.62319 2.31006 3.92619 2.13706 4.35119C2.00706 4.67219 1.85206 5.15419 1.80906 6.04219C1.76306 7.00219 1.75306 7.29019 1.75306 9.72119C1.75306 12.1522 1.76306 12.4402 1.80906 13.4002C1.85106 14.2882 2.00606 14.7702 2.13706 15.0912C2.31006 15.5162 2.51606 15.8192 2.84906 16.1382C3.18206 16.4572 3.49906 16.6542 3.94306 16.8192C4.27806 16.9442 4.78206 17.0922 5.71006 17.1322C6.71406 17.1762 7.01506 17.1852 9.55606 17.1852C12.0981 17.1852 12.3991 17.1762 13.4021 17.1322C14.3301 17.0922 14.8341 16.9432 15.1691 16.8192C15.6131 16.6542 15.9301 16.4572 16.2631 16.1382C16.5961 15.8192 16.8021 15.5162 16.9751 15.0912C17.1051 14.7702 17.2601 14.2882 17.3031 13.4002C17.3491 12.4402 17.3591 12.1522 17.3591 9.72119C17.3591 7.29019 17.3491 7.00219 17.3031 6.04219C17.2611 5.15419 17.1061 4.67219 16.9751 4.35119C16.8021 3.92619 16.5961 3.62319 16.2631 3.30419C15.9301 2.98519 15.6131 2.78819 15.1691 2.62319C14.8341 2.49819 14.3301 2.35019 13.4021 2.31019C12.3981 2.26619 12.0971 2.25719 9.55606 2.25719ZM9.55606 5.04619C12.2551 5.04619 14.4441 7.13919 14.4441 9.72119C14.4441 12.3032 12.2561 14.3962 9.55606 14.3962C6.85706 14.3962 4.66806 12.3032 4.66806 9.72119C4.66806 7.13919 6.85606 5.04619 9.55606 5.04619ZM9.55606 12.7562C11.3081 12.7562 12.7291 11.3972 12.7291 9.72119C12.7291 8.04519 11.3091 6.68619 9.55606 6.68619C7.80406 6.68619 6.38306 8.04519 6.38306 9.72119C6.38306 11.3972 7.80306 12.7562 9.55606 12.7562ZM15.7791 4.86119C15.7791 5.46419 15.2681 5.95419 14.6371 5.95419C14.0061 5.95419 13.4951 5.46519 13.4951 4.86119C13.4951 4.25819 14.0061 3.76819 14.6371 3.76819C15.2681 3.76819 15.7791 4.25719 15.7791 4.86119Z"
					fill="#241C15"
				/>
			</svg>