<svg className="show h-8 w-8 bg-transparent" width="46" height="40" viewBox="0 0 46 40" fill="none" xmlns="http://www.w3.org/2000/svg">
  <path
    fill-rule="evenodd"
    clip-rule="evenodd"
    d="M22.8905 12.3463C23.0816 11.8743 23.727 11.6125 24.3321 11.7616C25.4877 12.0462 26.3523 12.559 26.9738 13.1692C27.6336 13.817 27.9312 14.536 27.7253 15.2784C27.5335 15.97 26.9479 16.5113 26.3405 16.9225C25.2656 17.6502 23.6647 18.2616 22.3531 18.7626C22.2078 18.8181 22.066 18.8723 21.9289 18.9251C20.1527 19.6091 18.6344 20.5976 17.654 21.6654C16.6659 22.7416 16.3002 23.8052 16.5569 24.6999C16.6674 25.085 17.0047 25.3659 17.6708 25.5687C18.3658 25.7804 19.2863 25.8563 20.2204 25.8382C25.2231 25.7412 28.4895 26.9965 29.7142 29.0964C30.928 31.1774 29.6484 34.7963 24.812 38.7288C24.3519 39.0697 23.6246 39.0551 23.1876 38.6963C22.7505 38.3375 22.7692 37.7703 23.2292 37.4294C27.6225 33.8253 28.2965 30.9942 27.6225 29.8385C26.9594 28.7016 24.8899 27.5406 20.2775 27.63C19.2008 27.6509 17.9343 27.573 16.8351 27.2384C15.7071 26.8949 14.6431 26.2371 14.3144 25.0913C13.8664 23.5301 14.5679 21.9481 15.7857 20.6218C17.0111 19.2872 18.8375 18.1167 20.9115 17.318C21.0425 17.2675 21.1733 17.2174 21.3034 17.1675C22.686 16.6372 24.0015 16.1326 24.8342 15.5689C25.2794 15.2675 25.4396 15.0426 25.4793 14.8995C25.5049 14.8072 25.5196 14.623 25.1745 14.2841C24.8187 13.9348 24.3303 13.6407 23.6402 13.4707C23.035 13.3217 22.6994 12.8182 22.8905 12.3463Z"
    fill="black"
  />
  <path
    d="M5.13286 31.3407C-0.220343 34.073 4.24506 27.0285 7.95298 24.3864C12.0629 21.4578 21.9341 23.6632 20.0795 26.2751C14.5426 34.0729 10.4861 28.6085 5.13286 31.3407Z"
    fill="#F1742D"
  />
  <path
    d="M2.08847 20.0205C0.37769 16.9909 5.89258 19.4771 8.14374 11.9744C10.0692 5.55701 19.0495 11.0014 18.3132 13.8221C16.8309 19.5 3.40282 22.3481 2.08847 20.0205Z"
    fill="#F1742D"
  />
  <path
    d="M21.1983 8.72139C12.5105 8.72195 20.1051 1.79219 26.1864 2.67002C36.2007 4.97955 38.6348 11.1361 36.2003 14.4917C32.2449 19.9434 29.8861 8.72084 21.1983 8.72139Z"
    fill="#F1742D"
  />
  <path
    d="M4.68823 36.2284C4.68823 35.8951 4.95837 35.625 5.2916 35.625H24.0094H42.005C42.3382 35.625 42.6083 35.8951 42.6083 36.2284C42.6083 37.3722 40.7085 39.186 38.3649 39.186H8.93167C6.58808 39.186 4.68823 37.3722 4.68823 36.2284Z"
    fill="black"
  />
  <path
    d="M26.1767 21.3371C26.1767 17.1618 30.0134 23.0133 36.9393 20.4033C41.4957 18.6861 44.6252 24.9187 42.8095 27.6332C39.6731 32.3223 26.1767 25.5574 26.1767 21.3371Z"
    fill="#F1742D"
  />
</svg>