<svg className="show h-8 w-8 bg-transparent"
  width="21"
  height="15"
  viewBox="0 0 21 15"
  fill="none"
  xmlns="http://www.w3.org/2000/svg"
>
  <path
    d="M8.14706 10.3482L8.14606 4.66819L13.6681 7.51819L8.14706 10.3482ZM20.2721 3.68419C20.2721 3.68419 20.0721 2.29119 19.4601 1.67819C18.6831 0.873187 17.8121 0.869187 17.4121 0.822187C14.5521 0.617188 10.2621 0.617188 10.2621 0.617188H10.2531C10.2531 0.617188 5.96306 0.617188 3.10306 0.822187C2.70306 0.869187 1.83306 0.873187 1.05506 1.67819C0.443062 2.29119 0.243062 3.68419 0.243062 3.68419C0.243062 3.68419 0.0390625 5.32019 0.0390625 6.95619V8.49019C0.0390625 10.1262 0.243062 11.7622 0.243062 11.7622C0.243062 11.7622 0.442062 13.1552 1.05506 13.7682C1.83306 14.5732 2.85406 14.5482 3.30906 14.6322C4.94406 14.7872 10.2581 14.8352 10.2581 14.8352C10.2581 14.8352 14.5521 14.8292 17.4121 14.6242C17.8111 14.5772 18.6821 14.5732 19.4601 13.7672C20.0721 13.1542 20.2721 11.7612 20.2721 11.7612C20.2721 11.7612 20.4761 10.1262 20.4761 8.48919V6.95519C20.4761 5.32019 20.2721 3.68419 20.2721 3.68419Z"
    fill="#241C15"
  />
</svg>